<svg width="37" height="27" viewBox="0 0 37 27" fill="none" xmlns="http://www.w3.org/2000/svg">
<path d="M0 11.4497C0 18.5769 8.26333 26.9999 18.5 26.9999C28.7367 26.9999 37 18.5769 37 11.4497H0Z" fill="white"/>
<path d="M37 11.4497C37 16.0392 28.7367 19.7648 18.5 19.7648C8.26333 19.7648 0 16.0392 0 11.4497C0 6.86022 8.26333 3.13464 18.5 3.13464C28.7367 3.13464 37 6.86022 37 11.4497Z" fill="#8F399E"/>
<path d="M18.5 18.6849C9.12663 18.6849 1.17163 15.3373 1.17163 11.3957C1.17163 7.45419 9.12663 4.10657 18.5 4.10657C27.8733 4.10657 35.8283 7.45419 35.8283 11.3957C35.8283 15.3913 27.8733 18.6849 18.5 18.6849Z" fill="white"/>
<path d="M6.47498 2.37878C6.53664 3.29668 7.02998 6.37433 6.59831 7.77817C9.31164 8.21012 7.27664 3.62064 6.47498 2.37878Z" fill="white"/>
<path d="M33.0533 8.4801C34.2867 5.99639 32.375 3.40468 31.1417 4.91651C29.9083 6.42834 30.8333 7.40023 27.6883 6.86029C27.01 5.8344 28.675 2.70276 27.6883 2.10883C26.085 1.19093 26.085 4.64654 24.235 2.64877C22.385 0.704988 22.3233 5.29447 19.5483 5.29447C18.1917 5.29447 20.1033 1.73087 17.02 1.02895C13.9367 0.327031 14.8 3.40468 11.1 1.62288C7.4 -0.158914 5.48833 2.54078 7.215 3.67465C8.88 4.80852 7.52333 7.07626 7.27667 7.94017C5.18 7.07626 5.30333 10.8018 5.365 11.3958C3.885 11.8277 1.48 12.7456 1.41833 12.7996C2.96 16.0392 10.1133 18.6849 18.5 18.6849C27.8733 18.6849 35.8283 15.3373 35.8283 11.3958C35.8283 7.40023 31.0183 12.5296 33.0533 8.4801Z" fill="white"/>
<path d="M22.385 12.9616C23.9266 10.0999 20.165 11.2878 18.7466 12.5297C18.685 10.4779 19.9183 9.18204 20.9666 7.7782C19.24 8.85808 17.39 10.0999 15.355 10.7479C16.5266 11.9357 17.1433 13.5555 17.39 15.1214C22.3233 15.5533 21.2133 17.6051 20.9666 18.631C26.825 18.253 20.905 15.7693 22.385 12.9616Z" fill="white"/>
<path d="M9.43501 5.83436C8.44834 6.69826 8.14001 7.77814 8.75668 8.31807C9.31168 8.85801 10.545 8.58804 11.5317 7.72414C12.5183 6.86024 12.8267 5.78036 12.21 5.24043C11.5933 4.75448 10.36 5.02445 9.43501 5.83436ZM22.4467 15.9852C21.46 16.8491 21.1517 17.929 21.7683 18.4689C22.3233 19.0089 23.5567 18.7389 24.5433 17.875C25.53 17.0111 25.8383 15.9312 25.2217 15.3913C24.6667 14.8513 23.4333 15.1213 22.4467 15.9852Z" fill="#8F3A9D" fill-opacity="0.98"/>
<path d="M14.8617 4.32263C12.4567 4.43062 11.3467 9.884 9.62 9.56004C11.0383 10.7479 11.7783 12.5297 11.7783 14.2575C12.1483 14.3115 12.7033 13.3936 13.0117 14.3655C12.58 11.3958 12.7033 8.1562 14.8617 4.32263Z" fill="white"/>
<path d="M24.9134 6.10443C25.53 7.18431 25.4684 8.31818 24.7284 8.64215C23.9884 8.96611 22.94 8.42617 22.2617 7.34629C21.645 6.26642 21.7067 5.13254 22.4467 4.80858C23.1867 4.48462 24.2967 5.02456 24.9134 6.10443Z" fill="#8F3A9D" fill-opacity="0.98"/>
<path d="M29.6617 7.02226C24.42 6.48232 23.6183 6.37433 27.9967 10.2079C29.1683 11.5037 24.7283 14.2574 23.125 14.5274C25.16 17.929 25.53 18.253 28.3667 17.3891C32.3133 16.2012 30.34 12.1517 32.19 13.0156C31.2033 11.7197 25.6533 11.1258 29.6617 7.02226Z" fill="white"/>
<path d="M32.8683 9.77596C32.745 9.18202 34.225 7.83218 33.9167 5.94239C33.6083 4.21459 31.3267 3.18871 30.6483 5.18648C30.0317 7.02227 28.0583 6.59032 28.0583 6.59032C29.3533 2.16282 28.675 0.00306767 25.8383 2.64877C24.3583 3.99861 25.715 -1.94071 21.0283 4.37657C18.6233 7.6162 19.61 -3.02059 15.2933 0.86697C11.84 3.94462 9.18833 -2.0487 6.90667 1.56889C5.735 3.45867 8.26333 3.72864 7.585 7.40023C7.585 7.40023 4.995 5.99639 5.24167 10.6399C5.30333 11.4498 0.678335 11.6117 1.72667 12.9616C2.775 12.5836 9.37333 9.82995 9.00333 12.3677C8.88 13.1236 8.325 15.5533 9.86667 15.4453C11.5317 15.3373 13.0733 13.0696 13.135 15.6613C13.1967 17.6591 14.3067 17.767 15.91 16.5252C16.3417 16.2012 16.65 15.6613 17.2667 15.4453C18.3767 15.0674 19.425 15.6073 20.4733 15.9313C22.4467 16.5792 21.8917 14.1495 20.535 13.7175C20.2883 13.6635 18.7467 13.4475 18.87 13.2316C19.1167 12.5836 19.98 12.1517 20.5967 11.8817C21.1517 11.6657 21.7683 11.5038 22.385 11.5038C23.2483 11.5578 22.94 12.0437 22.755 12.6376C22.57 13.3396 22.6933 14.2574 23.5567 14.4734C24.5433 14.7434 25.345 13.9335 26.0233 13.4475C26.5167 13.0696 29.785 11.2338 28.675 13.1776C27.9967 14.3114 24.7283 14.6894 26.2083 16.3632C27.195 17.4431 28.5517 16.9571 29.2917 15.9313C29.9083 15.1213 30.155 14.1495 30.4017 13.1776C30.5867 12.4217 30.6483 11.9897 31.5117 12.3677C32.6833 12.9076 34.1633 14.0955 34.225 12.1517C34.2867 10.8558 34.8417 8.4801 36.1367 10.7478C35.335 7.77818 32.9917 10.5859 32.8683 9.77596ZM24.8517 13.4475C24.79 13.5015 23.2483 14.4734 23.0017 13.5555C22.8167 12.8536 23.6183 12.0437 23.125 11.4498C22.2617 10.4239 19.98 11.3958 19.1167 11.9357C18.6233 12.2597 17.39 13.2856 18.315 13.7715C18.9933 14.1495 20.0417 13.9335 20.6583 14.4734C21.1517 14.9054 21.275 15.7153 20.4117 15.3913C19.3017 15.0134 18.1917 14.5274 16.9583 14.9594C16.28 15.1753 14.615 17.3351 13.8133 16.9031C13.3817 16.6872 13.5667 15.1753 13.505 14.7434C13.32 13.5015 12.3333 13.7175 11.4083 14.2035C11.0383 14.4194 9.92833 15.1213 9.49667 14.8514C9.065 14.5814 9.31167 13.3935 9.37333 13.0156C9.68167 10.6939 7.955 10.4779 5.735 11.0178C5.735 10.3159 5.67334 7.50821 7.15334 7.99416C8.01667 8.26413 10.2367 10.6399 11.0383 9.29001C11.9017 7.83218 15.725 1.40691 15.725 6.21236C15.725 7.50821 14.43 10.2619 15.4783 10.9098C16.4033 11.4498 18.7467 9.18202 19.3633 8.85806C20.905 7.94016 22.6317 7.07626 23.4333 9.12803C23.9883 10.4779 24.1117 12.2597 26.0233 12.6376C25.53 12.9076 25.16 13.1776 24.8517 13.4475ZM27.8117 11.1798C27.6267 12.1517 26.3317 12.3677 25.4683 11.9357C23.68 11.0178 24.6667 7.83218 22.4467 7.34623C19.795 6.7523 16.3417 10.8018 15.8483 10.3699C15.2317 9.77596 16.5267 7.29224 16.3417 5.67242C15.7867 1.5149 12.0867 5.56444 10.6067 8.91205C10.2983 9.55998 8.01667 7.83218 8.01667 7.83218C9.18833 3.40468 6.41333 3.45867 7.27667 2.05483C9.065 -1.07681 11.7167 4.9705 15.355 1.67688C19.3017 -1.83272 17.8217 9.55998 21.5217 4.75453C24.9133 0.381024 24.3583 3.99861 25.0983 3.78264C26.3933 3.40468 28.6133 -0.320895 27.4417 6.53632C20.1033 5.34846 28.1817 9.29001 27.8117 11.1798ZM33.2383 12.8536C32.3133 12.6916 31.3267 11.2878 30.2167 11.7737C29.2917 12.1517 29.23 14.3114 28.86 15.0674C28.4283 15.9853 27.01 17.1191 26.1467 15.7693C25.9617 15.4453 28.6133 13.9875 28.9217 13.3396C29.5383 12.0977 28.2433 11.9897 28.3667 11.1798C28.7983 8.69608 22.015 6.21236 28.12 7.13026C31.5733 7.6702 30.7717 3.94462 32.375 4.75453C35.4583 6.37434 30.0933 10.4239 33.5467 10.4779C33.3 11.2878 33.4233 12.0977 33.2383 12.8536Z" fill="white"/>
<path d="M4.07001 12.2056C5.05667 13.0155 5.36501 14.1494 4.74834 14.6893C4.19334 15.2292 2.96001 14.9593 1.97334 14.0954C0.986673 13.2315 0.67834 12.1516 1.29501 11.6116C1.91167 11.1257 3.14501 11.3957 4.07001 12.2056Z" fill="#8F3A9D" fill-opacity="0.98"/>
</svg>
