<svg width="41" height="31" viewBox="0 0 41 31" fill="none" xmlns="http://www.w3.org/2000/svg">
<path d="M20.8822 4.76291C20.7799 4.665 20.6437 4.61035 20.5021 4.61035C20.3604 4.61035 20.2242 4.665 20.1219 4.76291L7.46503 16.8539C7.41127 16.9054 7.36851 16.9671 7.33932 17.0356C7.31014 17.104 7.29513 17.1776 7.29521 17.252L7.29315 28.5999C7.29315 29.1833 7.52494 29.7429 7.93752 30.1555C8.35009 30.5681 8.90967 30.7998 9.49315 30.7998H16.1C16.3917 30.7998 16.6715 30.684 16.8778 30.4777C17.0841 30.2714 17.2 29.9916 17.2 29.6998V20.3499C17.2 20.204 17.2579 20.0641 17.3611 19.961C17.4642 19.8578 17.6041 19.7999 17.75 19.7999H23.25C23.3959 19.7999 23.5358 19.8578 23.6389 19.961C23.742 20.0641 23.8 20.204 23.8 20.3499V29.6998C23.8 29.9916 23.9159 30.2714 24.1222 30.4777C24.3285 30.684 24.6082 30.7998 24.9 30.7998H31.5041C32.0876 30.7998 32.6471 30.5681 33.0597 30.1555C33.4723 29.7429 33.7041 29.1833 33.7041 28.5999V17.252C33.7042 17.1776 33.6892 17.104 33.66 17.0356C33.6308 16.9671 33.588 16.9054 33.5343 16.8539L20.8822 4.76291Z" fill="white"/>
<g filter="url(#filter0_d_3004_198)">
<path d="M36.65 14.5853L31.5075 9.66554V2.19999C31.5075 1.90826 31.3916 1.62847 31.1853 1.42218C30.979 1.21589 30.6993 1.1 30.4075 1.1H27.1075C26.8158 1.1 26.536 1.21589 26.3297 1.42218C26.1234 1.62847 26.0075 1.90826 26.0075 2.19999V4.39999L22.0255 0.592623C21.6529 0.215874 21.0988 0 20.5 0C19.9032 0 19.3505 0.215875 18.9779 0.593311L4.35478 14.5839C3.92715 14.9964 3.87353 15.675 4.26265 16.1218C4.36037 16.2346 4.48001 16.3264 4.6143 16.3915C4.7486 16.4565 4.89473 16.4936 5.04381 16.5004C5.19289 16.5073 5.3418 16.4837 5.48148 16.4311C5.62115 16.3785 5.74867 16.2981 5.85627 16.1947L20.1219 2.56299C20.2242 2.46508 20.3604 2.41043 20.502 2.41043C20.6437 2.41043 20.7799 2.46508 20.8822 2.56299L35.1492 16.1947C35.3594 16.3962 35.6409 16.5062 35.932 16.5006C36.2231 16.4949 36.5001 16.374 36.7023 16.1645C37.1244 15.7272 37.0893 15.0053 36.65 14.5853Z" fill="white"/>
<path d="M21.2279 2.20169C21.0325 2.01476 20.7725 1.91043 20.502 1.91043C20.2317 1.91043 19.9718 2.01469 19.7764 2.2015C19.7764 2.20156 19.7763 2.20162 19.7762 2.20169L5.51084 15.8332L5.50981 15.8342C5.45112 15.8906 5.38157 15.9345 5.30538 15.9631C5.22919 15.9918 5.14797 16.0047 5.06665 16.001C4.98534 15.9972 4.90563 15.977 4.83238 15.9415C4.75912 15.906 4.69386 15.856 4.64057 15.7944L4.63973 15.7935C4.43885 15.5628 4.45103 15.1864 4.70128 14.9444C4.70149 14.9442 4.7017 14.944 4.70191 14.9438L19.3235 0.954591L19.3287 0.949663L19.3337 0.944589C19.6005 0.674324 20.0191 0.5 20.5 0.5C20.9836 0.5 21.4035 0.674734 21.67 0.944225L21.6699 0.944362L21.68 0.954012L25.662 4.76138L26.5075 5.56984V4.39999V2.19999C26.5075 2.04087 26.5707 1.88825 26.6833 1.77573C26.7958 1.66321 26.9484 1.6 27.1075 1.6H30.4075C30.5667 1.6 30.7193 1.66321 30.8318 1.77573C30.9443 1.88825 31.0075 2.04086 31.0075 2.19999V9.66554V9.87916L31.1619 10.0268L36.3044 14.9466L36.3045 14.9467C36.5559 15.187 36.5606 15.5914 36.3425 15.8172L36.3424 15.8173C36.2321 15.9316 36.081 15.9976 35.9222 16.0007C35.7634 16.0038 35.6099 15.9438 35.4953 15.8338L35.4946 15.8332L21.2279 2.20169ZM21.2279 2.20169L20.8822 2.56299M21.2279 2.20169L21.2276 2.20148L20.8822 2.56299M20.8822 2.56299C20.7799 2.46508 20.6437 2.41043 20.502 2.41043C20.3604 2.41043 20.2242 2.46508 20.1219 2.56299L36.7023 16.1645C36.5001 16.374 36.2231 16.4949 35.932 16.5006C35.6409 16.5062 35.3594 16.3962 35.1492 16.1947L20.8822 2.56299Z" stroke="white"/>
</g>
<defs>
<filter id="filter0_d_3004_198" x="0" y="0" width="41" height="24.5017" filterUnits="userSpaceOnUse" color-interpolation-filters="sRGB">
<feFlood flood-opacity="0" result="BackgroundImageFix"/>
<feColorMatrix in="SourceAlpha" type="matrix" values="0 0 0 0 0 0 0 0 0 0 0 0 0 0 0 0 0 0 127 0" result="hardAlpha"/>
<feOffset dy="4"/>
<feGaussianBlur stdDeviation="2"/>
<feComposite in2="hardAlpha" operator="out"/>
<feColorMatrix type="matrix" values="0 0 0 0 0 0 0 0 0 0 0 0 0 0 0 0 0 0 0.25 0"/>
<feBlend mode="normal" in2="BackgroundImageFix" result="effect1_dropShadow_3004_198"/>
<feBlend mode="normal" in="SourceGraphic" in2="effect1_dropShadow_3004_198" result="shape"/>
</filter>
</defs>
</svg>
