<svg width="500" height="500" viewBox="0 0 500 500" fill="none" xmlns="http://www.w3.org/2000/svg">
<path d="M249.05 486.05C379.174 486.05 484.66 425.148 484.66 350.02C484.66 274.893 379.174 213.99 249.05 213.99C118.926 213.99 13.4399 274.893 13.4399 350.02C13.4399 425.148 118.926 486.05 249.05 486.05Z" fill="#F0F0F0"/>
<path d="M384.36 397.22C368.91 388.3 368.91 373.84 384.36 364.92C399.81 356 424.86 356 440.31 364.92C455.76 373.84 455.76 388.3 440.31 397.22C424.86 406.14 399.81 406.14 384.36 397.22Z" fill="#E0E0E0"/>
<path d="M70.12 398.46L29.48 375.001C27.19 373.681 27.19 371.53 29.48 370.21L265.87 233.73C267.155 233.079 268.575 232.74 270.015 232.74C271.455 232.74 272.875 233.079 274.16 233.73L314.81 257.191C317.1 258.511 317.1 260.661 314.81 261.981L78.4199 398.46C77.1335 399.112 75.7118 399.451 74.2699 399.451C72.8281 399.451 71.4064 399.112 70.12 398.46Z" fill="#E0E0E0"/>
<path d="M216.2 356.64L251.14 336.44C254.74 334.36 256.54 331.64 256.54 328.91C256.54 326.18 256.54 324.05 256.54 324.05L220.3 303.61C219.288 302.955 218.445 302.07 217.84 301.027C217.235 299.984 216.886 298.813 216.82 297.61V254.52L155.82 289.78V332.85C155.89 334.052 156.242 335.221 156.846 336.264C157.451 337.306 158.291 338.191 159.3 338.85L190.14 356.61C197.32 360.8 209 360.8 216.2 356.64Z" fill="#F5AB13"/>
<g opacity="0.6">
<path d="M216.2 356.64L251.14 336.44C254.74 334.36 256.54 331.64 256.54 328.91C256.54 326.18 256.54 324.05 256.54 324.05L220.3 303.61C219.288 302.955 218.445 302.07 217.84 301.027C217.235 299.984 216.886 298.813 216.82 297.61V254.52L155.82 289.78V332.85C155.89 334.052 156.242 335.221 156.846 336.264C157.451 337.306 158.291 338.191 159.3 338.85L190.14 356.61C197.32 360.8 209 360.8 216.2 356.64Z" fill="black"/>
</g>
<path opacity="0.3" d="M170.45 340.48V345.32L159.27 338.87C158.261 338.213 157.421 337.327 156.819 336.285C156.216 335.242 155.867 334.073 155.8 332.87V289.78L167.42 283.07C167.66 286.02 167.92 289.07 168.17 292.07L160 296.77V330.42C160.065 331.624 160.414 332.796 161.019 333.839C161.624 334.882 162.467 335.766 163.48 336.42L170.45 340.48Z" fill="black"/>
<path d="M160 330.43C160.069 331.633 160.42 332.803 161.024 333.845C161.629 334.887 162.47 335.773 163.48 336.43L190.1 351.77C197.3 355.92 208.98 355.93 216.19 351.77L251.19 331.57C258.4 327.41 258.4 320.67 251.19 316.51L224.55 301.17C223.542 300.511 222.703 299.625 222.101 298.583C221.498 297.541 221.148 296.372 221.08 295.17V261.51L160.08 296.77L160 330.43Z" fill="#F5AB13"/>
<path opacity="0.3" d="M160 330.43C160.069 331.633 160.42 332.803 161.024 333.845C161.629 334.887 162.47 335.773 163.48 336.43L190.1 351.77C197.3 355.92 208.98 355.93 216.19 351.77L251.19 331.57C258.4 327.41 258.4 320.67 251.19 316.51L224.55 301.17C223.542 300.511 222.703 299.625 222.101 298.583C221.498 297.541 221.148 296.372 221.08 295.17V261.51L160.08 296.77L160 330.43Z" fill="black"/>
<path opacity="0.5" d="M231.6 305.28L224.51 301.19C223.502 300.531 222.663 299.645 222.061 298.603C221.458 297.561 221.108 296.392 221.04 295.19V261.51L160.04 296.77V330.43C160.109 331.633 160.46 332.803 161.064 333.845C161.669 334.887 162.51 335.773 163.52 336.43L170.52 340.43L231.6 305.28Z" fill="black"/>
<path d="M256.55 324.061V328.921C256.55 331.651 254.74 334.361 251.15 336.451L216.15 356.641C212.32 358.685 208.042 359.747 203.7 359.731V354.891C208.042 354.907 212.32 353.845 216.15 351.801L251.15 331.591C254.74 329.521 256.55 326.791 256.55 324.061Z" fill="#F5AB13"/>
<path opacity="0.5" d="M256.55 324.061V328.921C256.55 331.651 254.74 334.361 251.15 336.451L216.15 356.641C212.32 358.685 208.042 359.747 203.7 359.731V354.891C208.042 354.907 212.32 353.845 216.15 351.801L251.15 331.591C254.74 329.521 256.55 326.791 256.55 324.061Z" fill="black"/>
<path d="M62 372.26C63.3187 372.897 64.7686 373.215 66.2329 373.189C67.6971 373.163 69.1348 372.793 70.43 372.11L306.43 235.86C307.695 235.034 308.749 233.922 309.504 232.614C310.26 231.306 310.697 229.838 310.78 228.33V37.4097C310.735 35.942 310.344 34.5059 309.638 33.2182C308.932 31.9305 307.933 30.8277 306.72 29.9997C305.403 29.362 303.954 29.0442 302.491 29.072C301.028 29.0998 299.592 29.4725 298.3 30.1597L62.3 166.45C61.039 167.28 59.9921 168.397 59.2449 169.709C58.4976 171.021 58.071 172.491 58 174V364.89C58.0446 366.345 58.4297 367.77 59.1243 369.05C59.819 370.33 60.8038 371.429 62 372.26Z" fill="#F5AB13"/>
<path d="M70.4601 372.1L306.46 235.85C307.727 235.026 308.782 233.915 309.538 232.606C310.294 231.297 310.73 229.829 310.81 228.32V37.4097C310.81 34.6397 308.86 33.5097 306.46 34.8997L70.4601 171.15C69.1941 171.974 68.1405 173.086 67.3846 174.394C66.6288 175.703 66.1922 177.171 66.1101 178.68V369.59C66.1101 372.36 68.0601 373.49 70.4601 372.1Z" fill="#F5AB13"/>
<path opacity="0.5" d="M70.4601 372.1L306.46 235.85C307.727 235.026 308.782 233.915 309.538 232.606C310.294 231.297 310.73 229.829 310.81 228.32V37.4097C310.81 34.6397 308.86 33.5097 306.46 34.8997L70.4601 171.15C69.1941 171.974 68.1405 173.086 67.3846 174.394C66.6288 175.703 66.1922 177.171 66.1101 178.68V369.59C66.1101 372.36 68.0601 373.49 70.4601 372.1Z" fill="black"/>
<path d="M69.82 377.059C68.5824 377.599 67.2425 377.865 65.8924 377.837C64.5424 377.809 63.2144 377.489 62 376.899C60.8012 376.066 59.8146 374.964 59.1199 373.68C58.4251 372.397 58.0415 370.968 58 369.509V352.129L66.15 356.849V374.229C66.1 376.759 67.71 377.909 69.82 377.059Z" fill="#F5AB13"/>
<path opacity="0.5" d="M69.82 377.059C68.5824 377.599 67.2425 377.865 65.8924 377.837C64.5424 377.809 63.2144 377.489 62 376.899C60.8012 376.066 59.8146 374.964 59.1199 373.68C58.4251 372.397 58.0415 370.968 58 369.509V352.129L66.15 356.849V374.229C66.1 376.759 67.71 377.909 69.82 377.059Z" fill="black"/>
<path d="M66.1001 356.849V374.229C66.1001 376.999 68.1001 378.119 70.4501 376.739L306.45 240.489C307.71 239.668 308.76 238.562 309.516 237.261C310.271 235.961 310.711 234.501 310.8 232.999V215.539L66.1001 356.849Z" fill="#F5AB13"/>
<path opacity="0.3" d="M66.1101 356.809V374.229C66.1101 376.999 68.1101 378.119 70.4601 376.739L306.46 240.489C307.718 239.667 308.766 238.561 309.52 237.26C310.274 235.959 310.712 234.5 310.8 232.999V215.539L66.1101 356.809Z" fill="black"/>
<path d="M74.26 335.001V181.391C74.3066 180.486 74.5663 179.604 75.0182 178.819C75.47 178.033 76.1011 177.366 76.86 176.871L300 48.0006C301.44 47.1706 302.61 47.8406 302.61 49.5006V203.191C302.562 204.096 302.3 204.978 301.846 205.763C301.393 206.549 300.76 207.216 300 207.711L76.87 336.551C75.43 337.381 74.26 336.701 74.26 335.001Z" fill="#F5AB13"/>
<path d="M74.26 335.001V181.391C74.3066 180.486 74.5663 179.604 75.0182 178.819C75.47 178.033 76.1011 177.366 76.86 176.871L300 48.0006C301.44 47.1706 302.61 47.8406 302.61 49.5006V203.191C302.562 204.096 302.3 204.978 301.846 205.763C301.393 206.549 300.76 207.216 300 207.711L76.87 336.551C75.43 337.381 74.26 336.701 74.26 335.001Z" fill="#263238"/>
<path d="M188.45 291.729C187.262 292.502 186.274 293.544 185.565 294.771C184.856 295.998 184.446 297.375 184.37 298.789C184.37 301.389 186.2 302.449 188.45 301.149C189.639 300.376 190.629 299.332 191.338 298.104C192.047 296.875 192.455 295.496 192.53 294.079C192.53 291.479 190.7 290.429 188.45 291.729Z" fill="#F5AB13"/>
<path opacity="0.7" d="M67.39 174.379C66.615 175.682 66.172 177.155 66.1 178.669V356.849L58 352.129V173.999C58.0525 172.48 58.4931 171 59.28 169.699L67.39 174.379Z" fill="black"/>
<path opacity="0.3" d="M310.76 36.6888C310.45 34.4488 308.64 33.6888 306.45 34.8988L70.45 171.149C69.1704 171.949 68.1143 173.06 67.38 174.379L59.22 169.669C59.9592 168.351 61.0184 167.24 62.3 166.439L298.3 30.1988C299.594 29.5115 301.031 29.1389 302.496 29.1111C303.961 29.0833 305.411 29.4011 306.73 30.0388C307.839 30.7942 308.772 31.7788 309.467 32.9261C310.163 34.0733 310.603 35.3565 310.76 36.6888Z" fill="black"/>
<path d="M323.49 60.1903C323.139 60.0144 322.747 59.9373 322.356 59.9672C321.965 59.9972 321.59 60.1331 321.27 60.3603L98.59 189C97.7113 189.582 96.9819 190.362 96.4607 191.277C95.9395 192.193 95.6412 193.218 95.59 194.27V346.94C95.5588 347.456 95.6611 347.97 95.8871 348.435C96.1131 348.899 96.4551 349.297 96.88 349.59C97.37 349.86 99.99 351.38 100.77 351.8C101.046 351.941 101.354 352.006 101.663 351.988C101.973 351.971 102.272 351.871 102.53 351.7L325.16 223.06C326.039 222.479 326.768 221.699 327.289 220.784C327.81 219.868 328.109 218.843 328.16 217.79V64.3303C328.205 63.9425 328.14 63.55 327.974 63.1967C327.808 62.8434 327.547 62.5434 327.22 62.3303C326.72 62.0003 324.05 60.5203 323.49 60.1903Z" fill="#F5AB13"/>
<path d="M102.48 191.16L325.17 62.5705C326.85 61.5705 328.17 62.3905 328.17 64.3305V217.79C328.119 218.843 327.82 219.868 327.299 220.784C326.778 221.699 326.049 222.479 325.17 223.06L102.48 351.7C100.8 352.7 99.48 351.09 99.48 349.15V196.43C99.5328 195.379 99.8317 194.354 100.353 193.438C100.874 192.523 101.602 191.743 102.48 191.16Z" fill="#FAFAFA"/>
<path d="M326.53 63.1504C327.12 63.1504 327.21 63.8904 327.21 64.3304V217.79C327.156 218.671 326.898 219.528 326.455 220.292C326.012 221.055 325.398 221.706 324.66 222.19L102 350.83C101.851 350.927 101.678 350.983 101.5 350.99C100.94 350.99 100.5 350.13 100.5 349.15V196.43C100.548 195.55 100.799 194.692 101.232 193.923C101.666 193.155 102.271 192.497 103 192L325.67 63.4304C325.928 63.2642 326.224 63.1677 326.53 63.1504ZM326.53 62.1504C326.048 62.1709 325.58 62.3156 325.17 62.5704L102.48 191.16C101.602 191.743 100.874 192.523 100.353 193.438C99.8317 194.354 99.5328 195.378 99.48 196.43V349.15C99.48 350.69 100.34 351.99 101.48 351.99C101.833 351.984 102.178 351.884 102.48 351.7L325.16 223.06C326.039 222.479 326.768 221.699 327.289 220.784C327.81 219.868 328.109 218.843 328.16 217.79V64.3304C328.16 62.9504 327.48 62.1504 326.48 62.1504H326.53Z" fill="#E0E0E0"/>
<path d="M96.8201 349.591C97.1501 349.761 99.5201 351.111 100.56 351.711C100.187 351.401 99.8908 351.008 99.6964 350.564C99.5019 350.119 99.4141 349.636 99.4401 349.151V206.401L95.5401 204.121V346.941C95.5078 347.456 95.6086 347.97 95.8328 348.434C96.057 348.898 96.397 349.297 96.8201 349.591Z" fill="#F0F0F0"/>
<path d="M328.21 64.2996C328.21 62.3796 326.84 61.5996 325.21 62.5696L102.48 191.16C101.602 191.742 100.874 192.522 100.353 193.438C99.8317 194.353 99.5328 195.378 99.48 196.43V206.43L328.21 74.2996V64.2996Z" fill="#F5AB13"/>
<g opacity="0.4">
<path d="M325.17 62.5703L102.48 191.15C101.586 191.714 100.85 192.495 100.34 193.42L96.47 191.17C96.9791 190.277 97.7091 189.53 98.59 189L321.27 60.3603C321.589 60.1315 321.964 59.9939 322.355 59.9621C322.746 59.9304 323.138 60.0059 323.49 60.1803C324.03 60.5203 326.56 61.9503 327.21 62.3003C326.874 62.1757 326.512 62.1351 326.156 62.1821C325.801 62.2292 325.462 62.3625 325.17 62.5703Z" fill="white"/>
</g>
<path opacity="0.15" d="M95.54 204.13V194.22C95.5811 193.14 95.9015 192.089 96.47 191.17L100.35 193.41C99.7897 194.313 99.4759 195.348 99.44 196.41V206.41L95.54 204.13Z" fill="black"/>
<path d="M281.25 179.421L147.88 256.421C147.232 256.842 146.692 257.41 146.304 258.079C145.917 258.748 145.692 259.499 145.65 260.271V298.511C145.692 299.283 145.917 300.034 146.304 300.703C146.692 301.372 147.232 301.94 147.88 302.361L151.77 304.601C152.461 304.951 153.225 305.133 154 305.133C154.775 305.133 155.539 304.951 156.23 304.601L289.58 227.601C290.229 227.178 290.769 226.608 291.156 225.937C291.544 225.267 291.768 224.514 291.81 223.741V185.491C291.768 184.719 291.544 183.968 291.156 183.299C290.769 182.63 290.229 182.062 289.58 181.641L285.68 179.401C284.992 179.057 284.232 178.879 283.463 178.883C282.693 178.886 281.935 179.071 281.25 179.421Z" fill="#F5AB13"/>
<path opacity="0.5" d="M291.81 185.15C291.65 184 290.72 183.58 289.6 184.23L156.23 261.23C155.572 261.638 155.031 262.21 154.66 262.89L146.31 258.07C146.684 257.401 147.221 256.837 147.87 256.43L281.25 179.43C281.939 179.079 282.702 178.896 283.475 178.896C284.248 178.896 285.011 179.079 285.7 179.43L289.6 181.67C290.195 182.059 290.699 182.571 291.08 183.171C291.462 183.771 291.71 184.446 291.81 185.15Z" fill="white"/>
<path d="M155.85 304.79C155.197 305.048 154.497 305.165 153.796 305.134C153.095 305.103 152.408 304.924 151.78 304.61L147.88 302.37C147.233 301.948 146.694 301.38 146.306 300.711C145.919 300.042 145.694 299.292 145.65 298.52V260.28C145.68 259.5 145.907 258.74 146.31 258.07L154.66 262.89C154.254 263.551 154.027 264.305 154 265.08V303.33C154 304.6 154.8 305.19 155.85 304.79Z" fill="#263238"/>
<path d="M156.23 261.231L289.6 184.231C290.83 183.521 291.83 184.091 291.83 185.511V223.761C291.788 224.534 291.564 225.287 291.176 225.957C290.789 226.628 290.249 227.198 289.6 227.621L156.25 304.621C155.02 305.331 154.02 304.751 154.02 303.331V265.091C154.06 264.319 154.281 263.568 154.665 262.898C155.049 262.227 155.585 261.656 156.23 261.231Z" fill="#F5AB13"/>
<path d="M245.89 199.84L147.89 256.43C147.241 256.837 146.704 257.401 146.33 258.07L154.68 262.89C155.052 262.21 155.592 261.639 156.25 261.23L254.25 204.65L245.89 199.84Z" fill="#455A64"/>
<path d="M254.23 204.65L156.23 261.23C155.581 261.653 155.041 262.223 154.654 262.894C154.266 263.565 154.042 264.317 154 265.09V303.32C154 304.74 155 305.32 156.23 304.61L254.23 248.03V204.65Z" fill="#37474F"/>
<path d="M178.83 256.57L229.4 227.38C231.49 226.17 233.19 227.03 233.19 229.3C233.097 230.575 232.704 231.81 232.043 232.905C231.383 233.999 230.474 234.923 229.39 235.6L178.83 264.8C176.74 266.01 175.03 265.15 175.03 262.88C175.124 261.604 175.517 260.368 176.178 259.272C176.838 258.176 177.746 257.25 178.83 256.57Z" fill="#F5AB13"/>
<path d="M189.19 266.241C189.2 266.23 189.211 266.222 189.224 266.216C189.237 266.21 189.251 266.207 189.265 266.207C189.279 266.207 189.293 266.21 189.306 266.216C189.319 266.222 189.331 266.23 189.34 266.241C189.385 266.309 189.406 266.39 189.4 266.471V272.161C189.401 272.711 189.354 273.259 189.26 273.801C189.178 274.296 189.037 274.779 188.84 275.241C188.661 275.664 188.425 276.061 188.14 276.421C187.859 276.755 187.52 277.036 187.14 277.251C186.843 277.445 186.495 277.549 186.14 277.551C186.004 277.54 185.872 277.502 185.752 277.438C185.632 277.374 185.525 277.287 185.44 277.181C185.221 276.887 185.077 276.543 185.02 276.181C184.924 275.697 184.881 275.204 184.89 274.711V269.011C184.89 268.911 184.91 268.812 184.95 268.721C184.975 268.638 185.028 268.567 185.1 268.521L185.73 268.151C185.75 268.132 185.777 268.121 185.805 268.121C185.833 268.121 185.86 268.132 185.88 268.151C185.926 268.218 185.948 268.3 185.94 268.381V274.001C185.932 274.31 185.963 274.619 186.03 274.921C186.058 275.114 186.141 275.295 186.27 275.441C186.315 275.494 186.372 275.537 186.436 275.565C186.5 275.592 186.57 275.605 186.64 275.601C186.811 275.59 186.976 275.534 187.12 275.441C187.298 275.335 187.46 275.203 187.6 275.051C187.756 274.871 187.884 274.669 187.98 274.451C188.093 274.194 188.177 273.926 188.23 273.651C188.288 273.321 188.315 272.986 188.31 272.651V267.021C188.313 266.92 188.337 266.822 188.38 266.731C188.405 266.648 188.458 266.577 188.53 266.531L189.19 266.241Z" fill="#FAFAFA"/>
<path d="M193.11 271.62C193.115 271.547 193.098 271.474 193.06 271.41C193.036 271.384 193.007 271.364 192.974 271.352C192.941 271.34 192.905 271.336 192.87 271.34C192.747 271.324 192.623 271.324 192.5 271.34L191.92 271.45C191.733 271.497 191.537 271.497 191.35 271.45C191.203 271.403 191.077 271.308 190.99 271.18C190.892 271.018 190.828 270.838 190.8 270.65C190.703 270.115 190.703 269.566 190.8 269.03C190.875 268.723 190.982 268.425 191.12 268.14C191.257 267.856 191.425 267.588 191.62 267.34C191.809 267.104 192.04 266.904 192.3 266.75C192.51 266.622 192.746 266.54 192.99 266.51C193.167 266.492 193.346 266.53 193.5 266.62C193.647 266.71 193.762 266.843 193.83 267C193.911 267.187 193.955 267.387 193.96 267.59C193.97 267.691 193.949 267.792 193.9 267.88C193.876 267.963 193.822 268.034 193.75 268.08L193.15 268.43C193.123 268.446 193.092 268.454 193.06 268.454C193.028 268.454 192.997 268.446 192.97 268.43L192.84 268.33C192.788 268.29 192.726 268.265 192.66 268.26C192.532 268.275 192.408 268.319 192.3 268.39C192.143 268.485 192.004 268.607 191.89 268.75C191.769 268.908 191.706 269.102 191.71 269.3C191.696 269.376 191.696 269.454 191.71 269.53C191.729 269.559 191.754 269.582 191.784 269.599C191.813 269.617 191.846 269.627 191.88 269.63C191.989 269.649 192.101 269.649 192.21 269.63L192.77 269.53C193.24 269.44 193.56 269.53 193.77 269.79C193.991 270.161 194.092 270.59 194.06 271.02C194.057 271.318 194.017 271.613 193.94 271.9C193.861 272.212 193.747 272.514 193.6 272.8C193.453 273.096 193.268 273.372 193.05 273.62C192.843 273.863 192.596 274.07 192.32 274.23C192.1 274.371 191.85 274.457 191.59 274.48C191.402 274.487 191.217 274.434 191.06 274.33C190.906 274.225 190.787 274.075 190.72 273.9C190.639 273.711 190.598 273.506 190.6 273.3C190.591 273.197 190.612 273.092 190.66 273C190.685 272.918 190.738 272.847 190.81 272.8L191.41 272.45C191.49 272.45 191.55 272.4 191.59 272.45L191.72 272.59C191.747 272.62 191.779 272.644 191.815 272.662C191.851 272.679 191.89 272.688 191.93 272.69C192.071 272.691 192.208 272.645 192.32 272.56C192.501 272.458 192.663 272.326 192.8 272.17C192.868 272.088 192.925 271.997 192.97 271.9C193.041 271.821 193.089 271.724 193.11 271.62Z" fill="#FAFAFA"/>
<path d="M195.15 268.911C195.148 268.391 195.192 267.872 195.28 267.361C195.363 266.879 195.494 266.407 195.67 265.951C195.817 265.542 196.019 265.155 196.27 264.801C196.48 264.496 196.752 264.24 197.07 264.051C197.302 263.895 197.585 263.834 197.86 263.881C198.104 263.937 198.318 264.083 198.46 264.291C198.648 264.562 198.781 264.868 198.85 265.191C198.946 265.61 198.993 266.04 198.99 266.471V267.091C198.993 267.195 198.969 267.298 198.92 267.391C198.895 267.473 198.842 267.544 198.77 267.591L196.17 269.101C196.164 269.277 196.187 269.452 196.24 269.621C196.279 269.734 196.348 269.834 196.44 269.911C196.522 269.976 196.625 270.008 196.73 270.001C196.851 269.986 196.967 269.945 197.07 269.881C197.221 269.798 197.357 269.69 197.47 269.561C197.572 269.445 197.66 269.318 197.73 269.181C197.773 269.102 197.819 269.025 197.87 268.951C197.913 268.9 197.964 268.856 198.02 268.821L198.64 268.461C198.661 268.443 198.688 268.434 198.715 268.434C198.742 268.434 198.769 268.443 198.79 268.461C198.816 268.492 198.835 268.529 198.846 268.569C198.856 268.609 198.857 268.65 198.85 268.691C198.839 268.886 198.799 269.078 198.73 269.261C198.644 269.538 198.53 269.806 198.39 270.061C198.234 270.353 198.046 270.628 197.83 270.881C197.615 271.138 197.358 271.358 197.07 271.531C196.834 271.685 196.551 271.753 196.27 271.721C196.024 271.661 195.81 271.511 195.67 271.301C195.473 270.997 195.34 270.657 195.28 270.301C195.189 269.843 195.146 269.377 195.15 268.911ZM197.07 265.721C196.916 265.803 196.783 265.92 196.68 266.061C196.569 266.201 196.478 266.355 196.41 266.521C196.34 266.686 196.283 266.856 196.24 267.031C196.205 267.189 196.181 267.349 196.17 267.511L197.93 266.511C197.92 266.373 197.9 266.236 197.87 266.101C197.855 265.98 197.806 265.866 197.73 265.771C197.7 265.727 197.662 265.691 197.617 265.663C197.572 265.636 197.522 265.618 197.47 265.611C197.328 265.598 197.186 265.637 197.07 265.721Z" fill="#FAFAFA"/>
<path d="M202.13 262.93C201.827 263.103 201.588 263.37 201.45 263.69C201.294 264.112 201.223 264.561 201.24 265.01V268.62C201.241 268.723 201.221 268.826 201.18 268.92C201.155 269.003 201.102 269.074 201.03 269.12L200.44 269.46C200.431 269.471 200.419 269.479 200.406 269.485C200.393 269.491 200.379 269.494 200.365 269.494C200.351 269.494 200.337 269.491 200.324 269.485C200.311 269.479 200.299 269.471 200.29 269.46C200.245 269.392 200.224 269.311 200.23 269.23V262.76C200.23 262.657 200.251 262.555 200.29 262.46C200.318 262.38 200.37 262.31 200.44 262.26L201.03 261.92C201.05 261.901 201.077 261.891 201.105 261.891C201.133 261.891 201.16 261.901 201.18 261.92C201.226 261.984 201.248 262.062 201.24 262.14V262.46C201.359 262.192 201.507 261.937 201.68 261.7C201.838 261.481 202.043 261.3 202.28 261.17L202.64 260.96C202.659 260.942 202.684 260.932 202.71 260.932C202.736 260.932 202.761 260.942 202.78 260.96C202.828 261.027 202.853 261.108 202.85 261.19V262.1C202.848 262.204 202.824 262.306 202.78 262.4C202.755 262.48 202.706 262.549 202.64 262.6L202.13 262.93Z" fill="#FAFAFA"/>
<path d="M209.59 262.45C209.599 262.439 209.611 262.431 209.624 262.425C209.637 262.419 209.651 262.416 209.665 262.416C209.679 262.416 209.693 262.419 209.706 262.425C209.719 262.431 209.731 262.439 209.74 262.45C209.785 262.518 209.806 262.599 209.8 262.68V263.68C209.799 263.783 209.779 263.885 209.74 263.98C209.706 264.054 209.654 264.119 209.59 264.17L206.17 266.17C206.15 266.189 206.123 266.2 206.095 266.2C206.067 266.2 206.04 266.189 206.02 266.17C205.975 266.106 205.954 266.028 205.96 265.95V256.95C205.96 256.847 205.981 256.745 206.02 256.65C206.048 256.572 206.101 256.505 206.17 256.46L206.8 256.09C206.82 256.071 206.847 256.061 206.875 256.061C206.903 256.061 206.93 256.071 206.95 256.09C206.995 256.154 207.016 256.232 207.01 256.31V263.92L209.59 262.45Z" fill="#FAFAFA"/>
<path d="M212.66 255.051C212.885 254.895 213.157 254.821 213.43 254.841C213.664 254.86 213.882 254.967 214.04 255.141C214.226 255.355 214.363 255.608 214.44 255.881C214.547 256.235 214.607 256.601 214.62 256.971C214.62 257.051 214.62 257.161 214.62 257.291V258.061C214.62 258.181 214.62 258.291 214.62 258.381C214.6 258.816 214.54 259.248 214.44 259.671C214.347 260.084 214.213 260.486 214.04 260.871C213.881 261.23 213.676 261.566 213.43 261.871C213.219 262.148 212.958 262.382 212.66 262.561C212.429 262.711 212.156 262.785 211.88 262.771C211.649 262.751 211.434 262.644 211.28 262.471C211.088 262.265 210.951 262.014 210.88 261.741C210.773 261.387 210.713 261.021 210.7 260.651C210.7 260.571 210.7 260.471 210.7 260.341V259.571C210.7 259.441 210.7 259.331 210.7 259.251C210.712 258.813 210.769 258.377 210.87 257.951C210.967 257.535 211.105 257.13 211.28 256.741C211.439 256.385 211.64 256.049 211.88 255.741C212.092 255.462 212.357 255.227 212.66 255.051ZM213.6 257.631C213.6 257.41 213.562 257.19 213.49 256.981C213.453 256.854 213.376 256.741 213.27 256.661C213.185 256.604 213.082 256.579 212.98 256.591C212.866 256.613 212.757 256.657 212.66 256.721C212.542 256.785 212.435 256.866 212.34 256.961C212.225 257.08 212.128 257.215 212.05 257.361C211.949 257.543 211.875 257.738 211.83 257.941C211.764 258.196 211.724 258.458 211.71 258.721C211.71 258.801 211.71 258.891 211.71 259.001V259.711C211.71 259.821 211.71 259.911 211.71 259.971C211.719 260.192 211.76 260.411 211.83 260.621C211.866 260.749 211.944 260.861 212.05 260.941C212.092 260.971 212.139 260.991 212.189 261.001C212.239 261.012 212.29 261.012 212.34 261.001C212.453 260.982 212.562 260.941 212.66 260.881C212.776 260.814 212.883 260.734 212.98 260.641C213.092 260.519 213.189 260.385 213.27 260.241C213.366 260.057 213.44 259.862 213.49 259.661C213.555 259.406 213.592 259.144 213.6 258.881C213.606 258.788 213.606 258.694 213.6 258.601V257.901C213.606 257.811 213.606 257.721 213.6 257.631Z" fill="#FAFAFA"/>
<path d="M217.68 260.9C217.808 260.822 217.923 260.724 218.02 260.61C218.14 260.469 218.244 260.314 218.33 260.15C218.429 259.949 218.506 259.738 218.56 259.52C218.621 259.275 218.652 259.023 218.65 258.77V258.26C218.65 258.36 218.55 258.48 218.48 258.62C218.411 258.766 218.331 258.906 218.24 259.04C218.136 259.18 218.022 259.314 217.9 259.44C217.775 259.571 217.629 259.683 217.47 259.77C217.367 259.84 217.251 259.888 217.129 259.913C217.007 259.937 216.882 259.936 216.76 259.91C216.538 259.84 216.347 259.695 216.22 259.5C216.057 259.241 215.939 258.957 215.87 258.66C215.785 258.282 215.738 257.897 215.73 257.51C215.73 257.38 215.73 257.22 215.73 257.03C215.73 256.84 215.73 256.68 215.73 256.54C215.742 256.1 215.789 255.662 215.87 255.23C215.952 254.804 216.069 254.386 216.22 253.98C216.361 253.627 216.543 253.291 216.76 252.98C216.944 252.704 217.187 252.472 217.47 252.3C217.603 252.22 217.748 252.162 217.9 252.13C218.012 252.109 218.128 252.109 218.24 252.13C218.329 252.155 218.411 252.199 218.48 252.26C218.544 252.309 218.601 252.366 218.65 252.43V252.11C218.65 252.007 218.671 251.905 218.71 251.81C218.738 251.732 218.791 251.665 218.86 251.62L219.45 251.27C219.47 251.251 219.497 251.24 219.525 251.24C219.553 251.24 219.58 251.251 219.6 251.27C219.648 251.337 219.673 251.417 219.67 251.5V258C219.697 258.973 219.516 259.941 219.14 260.84C218.845 261.546 218.334 262.141 217.68 262.54C217.457 262.678 217.202 262.757 216.94 262.77C216.733 262.782 216.526 262.73 216.35 262.62C216.181 262.493 216.044 262.329 215.95 262.14C215.852 261.912 215.798 261.668 215.79 261.42C215.781 261.316 215.801 261.212 215.85 261.12C215.874 261.037 215.928 260.966 216 260.92L216.53 260.62C216.542 260.607 216.557 260.596 216.573 260.589C216.59 260.582 216.607 260.579 216.625 260.579C216.643 260.579 216.66 260.582 216.677 260.589C216.693 260.596 216.708 260.607 216.72 260.62C216.769 260.672 216.813 260.729 216.85 260.79C216.911 260.897 217.011 260.976 217.13 261.01C217.25 261.1 217.43 261 217.68 260.9ZM216.74 256.05C216.74 256.316 216.74 256.576 216.74 256.83C216.711 257.229 216.825 257.626 217.06 257.95C217.149 258.027 217.263 258.069 217.38 258.069C217.497 258.069 217.611 258.027 217.7 257.95C217.99 257.761 218.217 257.489 218.35 257.17C218.532 256.753 218.634 256.305 218.65 255.85C218.65 255.7 218.65 255.52 218.65 255.31C218.65 255.1 218.65 254.92 218.65 254.79C218.67 254.432 218.564 254.078 218.35 253.79C218.261 253.708 218.145 253.663 218.025 253.663C217.905 253.663 217.789 253.708 217.7 253.79C217.415 253.978 217.193 254.246 217.06 254.56C216.855 255.03 216.746 255.537 216.74 256.05Z" fill="#FAFAFA"/>
<path d="M222 247.17C222.02 247.153 222.045 247.145 222.07 247.145C222.096 247.145 222.12 247.153 222.14 247.17C222.192 247.234 222.218 247.317 222.21 247.4V248.49C222.211 248.594 222.187 248.697 222.14 248.79C222.112 248.865 222.064 248.931 222 248.98L221.33 249.37C221.321 249.38 221.309 249.389 221.296 249.395C221.283 249.401 221.269 249.404 221.255 249.404C221.241 249.404 221.227 249.401 221.214 249.395C221.201 249.389 221.19 249.38 221.18 249.37C221.154 249.34 221.134 249.305 221.122 249.267C221.11 249.229 221.106 249.189 221.11 249.15V248.06C221.109 247.956 221.133 247.853 221.18 247.76C221.208 247.682 221.261 247.615 221.33 247.57L222 247.17ZM222.17 256.56C222.17 256.659 222.15 256.758 222.11 256.85C222.078 256.928 222.027 256.997 221.96 257.05L221.36 257.39C221.352 257.4 221.341 257.409 221.329 257.414C221.317 257.42 221.304 257.423 221.29 257.423C221.277 257.423 221.263 257.42 221.251 257.414C221.239 257.409 221.229 257.4 221.22 257.39C221.168 257.325 221.143 257.243 221.15 257.16V250.69C221.149 250.586 221.173 250.483 221.22 250.39C221.248 250.312 221.297 250.243 221.36 250.19L221.96 249.85C221.98 249.831 222.007 249.82 222.035 249.82C222.063 249.82 222.09 249.831 222.11 249.85C222.155 249.914 222.176 249.992 222.17 250.07V256.56Z" fill="#FAFAFA"/>
<path d="M227.43 253.51C227.43 253.613 227.409 253.715 227.37 253.81C227.342 253.888 227.29 253.955 227.22 254L226.62 254.35C226.601 254.369 226.576 254.379 226.55 254.379C226.524 254.379 226.499 254.369 226.48 254.35C226.428 254.286 226.403 254.203 226.41 254.12V250.6C226.441 250.185 226.365 249.769 226.19 249.39C226.05 249.14 225.83 249.1 225.52 249.28C225.211 249.488 224.982 249.795 224.87 250.15C224.703 250.622 224.622 251.12 224.63 251.62V255.15C224.63 255.253 224.609 255.355 224.57 255.45C224.546 255.533 224.492 255.604 224.42 255.65L223.83 255.99C223.821 256.001 223.809 256.01 223.796 256.016C223.783 256.021 223.769 256.024 223.755 256.024C223.741 256.024 223.727 256.021 223.714 256.016C223.701 256.01 223.69 256.001 223.68 255.99C223.634 255.927 223.612 255.849 223.62 255.77V249.3C223.619 249.197 223.639 249.095 223.68 249C223.705 248.918 223.758 248.847 223.83 248.8L224.42 248.46C224.43 248.45 224.441 248.441 224.454 248.435C224.467 248.43 224.481 248.427 224.495 248.427C224.509 248.427 224.523 248.43 224.536 248.435C224.549 248.441 224.561 248.45 224.57 248.46C224.615 248.528 224.636 248.609 224.63 248.69V249C224.762 248.696 224.923 248.404 225.11 248.13C225.275 247.878 225.498 247.669 225.76 247.52C225.988 247.354 226.271 247.283 226.55 247.32C226.661 247.348 226.764 247.399 226.854 247.47C226.944 247.541 227.017 247.629 227.07 247.73C227.215 248.001 227.31 248.296 227.35 248.6C227.404 248.998 227.43 249.399 227.43 249.8V253.51Z" fill="#FAFAFA"/>
<path d="M277.87 224.4L268.16 230L269.67 216.38C268.5 215.76 267.76 214.25 267.76 212.08C267.76 208.21 270.12 203.72 273.02 202.08C275.92 200.44 278.27 202.18 278.27 206.08C278.21 208.375 277.555 210.615 276.37 212.58L277.87 224.4Z" fill="#455A64"/>
<path d="M277.88 224.401L269.33 219.471L268.16 230.011L277.88 224.401Z" fill="#37474F"/>
<path d="M273 202.051C270.885 203.479 269.309 205.573 268.52 208.001L276.35 212.521C277.535 210.555 278.19 208.315 278.25 206.021C278.27 202.151 275.92 200.381 273 202.051Z" fill="#37474F"/>
<path d="M225.8 156.7C222.47 154.78 217.88 155.05 212.8 157.98C202.66 163.84 194.44 178.07 194.44 189.78C194.44 195.66 196.52 199.78 199.86 201.68L206.33 205.44C209.65 207.36 214.24 207.08 219.33 204.15C229.47 198.3 237.69 184.06 237.69 172.35C237.69 166.5 235.63 162.35 232.31 160.48" fill="#F5AB13"/>
<path d="M219.32 161.75C209.18 167.61 200.96 181.85 200.96 193.55C200.96 205.25 209.18 210.01 219.32 204.15C229.46 198.29 237.69 184.06 237.68 172.35C237.67 160.64 229.45 155.9 219.32 161.75Z" fill="#F5AB13"/>
<path d="M229.45 187.731V189.071C227.021 193.407 223.537 197.059 219.32 199.691C215.37 201.961 211.8 202.211 209.18 200.761V198.001C209.314 195.129 210.134 192.331 211.571 189.842C213.008 187.352 215.021 185.243 217.44 183.691L220.11 182.151C222.47 180.791 224.77 180.611 226.57 181.661C228.37 182.711 229.45 184.921 229.45 187.731Z" fill="#F5AB13"/>
<path opacity="0.4" d="M225.8 156.701L232.3 160.481C228.98 158.551 224.39 158.821 219.3 161.751C212.66 165.591 206.84 173.021 203.62 180.981L197.11 177.211C200.34 169.211 206.11 161.821 212.79 157.981C217.89 155.061 222.48 154.781 225.8 156.701Z" fill="white"/>
<path opacity="0.2" d="M206.1 205.291L199.87 201.681C196.53 199.781 194.45 195.681 194.45 189.781L200.96 193.561C201 199.261 202.92 203.321 206.1 205.291Z" fill="black"/>
<path opacity="0.1" d="M197.13 177.211L203.64 180.981C201.972 184.966 201.076 189.232 201 193.551L194.49 189.771C194.57 185.455 195.466 181.194 197.13 177.211Z" fill="black"/>
<path d="M217 181.52C216.38 181.526 215.769 181.367 215.23 181.06C214.581 180.627 214.061 180.027 213.724 179.322C213.388 178.618 213.248 177.836 213.32 177.06C213.405 175.238 213.925 173.462 214.837 171.883C215.748 170.303 217.025 168.965 218.56 167.98C219.177 167.487 219.927 167.193 220.714 167.134C221.501 167.075 222.287 167.255 222.97 167.651C223.653 168.046 224.2 168.638 224.541 169.35C224.882 170.062 225 170.86 224.88 171.64C224.794 173.461 224.273 175.236 223.361 176.815C222.45 178.395 221.174 179.733 219.64 180.72C218.846 181.215 217.935 181.491 217 181.52Z" fill="white"/>
<path d="M226.57 181.651C224.77 180.601 222.47 180.781 220.11 182.141L217.44 183.681C215.019 185.234 213.006 187.345 211.569 189.836C210.132 192.328 209.313 195.128 209.18 198.001V200.771C211.8 202.221 215.37 201.971 219.32 199.701C223.537 197.07 227.021 193.417 229.45 189.081V187.741C229.45 184.921 228.41 182.711 226.57 181.651Z" fill="white"/>
<path d="M432.15 354.65C432.15 354.65 433.48 342.97 439.29 333.9C445.1 324.83 453.08 319.18 460.53 318.59C467.98 318 474 324.86 466.03 329.59C458.06 334.32 443.9 339.1 437.38 356.7L432.15 354.65Z" fill="#F5AB13"/>
<path opacity="0.1" d="M432.15 354.65C432.15 354.65 433.48 342.97 439.29 333.9C445.1 324.83 453.08 319.18 460.53 318.59C467.98 318 474 324.86 466.03 329.59C458.06 334.32 443.9 339.1 437.38 356.7L432.15 354.65Z" fill="black"/>
<path d="M434.34 351.61H434.26C434.162 351.57 434.084 351.493 434.043 351.396C434.001 351.298 434 351.188 434.04 351.09C441.9 331.74 456.86 323.65 463.68 322.09C463.731 322.079 463.784 322.077 463.836 322.086C463.888 322.094 463.938 322.113 463.982 322.141C464.027 322.169 464.065 322.205 464.096 322.248C464.126 322.291 464.148 322.339 464.16 322.39C464.172 322.442 464.173 322.495 464.165 322.546C464.156 322.598 464.137 322.648 464.109 322.692C464.082 322.737 464.045 322.776 464.002 322.806C463.96 322.837 463.911 322.859 463.86 322.87C457.18 324.41 442.51 332.35 434.78 351.4C434.741 351.48 434.677 351.544 434.597 351.583C434.517 351.621 434.426 351.631 434.34 351.61Z" fill="white"/>
<path d="M474.12 351.841C473.45 353.361 471.79 354.161 470.25 354.781C468.71 355.401 467.03 356.071 466.19 357.511C464.51 360.411 467.27 364.511 465.47 367.321C465.046 367.886 464.512 368.36 463.901 368.715C463.289 369.069 462.612 369.295 461.91 369.381C460.76 369.591 459.59 369.591 458.43 369.691C457.874 369.683 457.32 369.64 456.77 369.561C455.154 369.2 453.464 369.379 451.96 370.071C449.65 371.371 448.96 374.281 447.54 376.531C446.672 377.855 445.529 378.977 444.188 379.819C442.847 380.662 441.34 381.204 439.77 381.411C438.77 381.541 436.77 381.731 435.77 381.141C435.692 381.102 435.618 381.055 435.55 381.001C435.4 380.841 435.22 380.631 435.14 380.521C435.135 380.498 435.135 380.474 435.14 380.451C434.73 378.941 435.4 377.381 435.43 375.821V375.541C435.36 373.731 435.31 371.931 435.27 370.131C435.183 366.797 435.15 363.464 435.17 360.131C435.17 357.971 434.93 355.611 435.85 353.581C436.85 351.341 439.37 351.291 440.32 349.101C440.7 348.221 440.9 347.291 441.27 346.401C441.842 345.107 442.758 343.994 443.918 343.185C445.078 342.376 446.438 341.9 447.85 341.811C452.24 341.591 456.17 345.141 460.56 344.811C461.69 344.721 462.8 344.371 463.92 344.171C467.47 343.501 471.58 344.511 473.58 347.521C474.019 348.14 474.298 348.859 474.392 349.613C474.486 350.367 474.393 351.132 474.12 351.841Z" fill="#F5AB13"/>
<path d="M434.7 373.52C434.605 373.492 434.525 373.428 434.477 373.343C434.428 373.257 434.415 373.155 434.44 373.06C440.5 350.32 464.44 347.06 470.07 347.44C470.119 347.442 470.168 347.455 470.213 347.476C470.257 347.498 470.297 347.528 470.33 347.566C470.362 347.603 470.387 347.647 470.403 347.694C470.418 347.741 470.424 347.791 470.42 347.84C470.41 347.937 470.363 348.027 470.288 348.09C470.214 348.153 470.118 348.186 470.02 348.18C464.53 347.79 441.09 351 435.16 373.26C435.132 373.354 435.068 373.434 434.983 373.483C434.897 373.531 434.795 373.545 434.7 373.52Z" fill="white"/>
<path d="M461.33 362C461.254 361.99 461.184 361.955 461.13 361.9C458.917 359.982 456.307 358.576 453.488 357.783C450.668 356.989 447.709 356.828 444.82 357.31C444.722 357.319 444.625 357.291 444.547 357.232C444.47 357.173 444.417 357.087 444.4 356.99C444.385 356.892 444.41 356.793 444.468 356.712C444.525 356.632 444.612 356.578 444.71 356.56C447.723 356.059 450.809 356.23 453.749 357.062C456.688 357.893 459.406 359.365 461.71 361.37C461.745 361.405 461.773 361.446 461.793 361.492C461.812 361.537 461.822 361.586 461.822 361.635C461.822 361.685 461.812 361.734 461.793 361.779C461.773 361.825 461.745 361.866 461.71 361.9C461.665 361.954 461.604 361.993 461.536 362.011C461.468 362.029 461.396 362.025 461.33 362Z" fill="white"/>
<path d="M377.12 80.0008L380.3 81.2208V74.2208C380.3 68.6608 384.73 67.3308 389.54 70.1108C394.36 72.8908 398.26 79.6408 398.26 85.2008V86.2008C398.93 85.9959 399.638 85.9453 400.331 86.0527C401.024 86.1601 401.683 86.4226 402.26 86.8208C404.086 88.0117 405.606 89.6168 406.696 91.5055C407.785 93.3943 408.414 95.5134 408.53 97.6908V98.1508L412.97 100.711C414.171 101.495 415.171 102.551 415.888 103.793C416.606 105.035 417.021 106.428 417.1 107.861C417.1 110.501 415.25 111.571 412.97 110.251L377.12 89.5408C375.918 88.7585 374.918 87.7029 374.202 86.4602C373.486 85.2176 373.074 83.8231 373 82.3908C373 79.7608 374.83 78.6908 377.12 80.0008Z" fill="#E6E6E6"/>
<path d="M419.71 74.4598L425.48 77.7898C425.449 77.5377 425.432 77.2839 425.43 77.0298V75.3598C425.43 72.3598 427.51 71.1798 430.09 72.6698C431.199 73.3486 432.147 74.2595 432.87 75.3398C433.29 71.5998 436.23 70.2098 439.79 72.2598C441.825 73.5836 443.518 75.368 444.735 77.4685C445.951 79.569 446.655 81.9264 446.79 84.3498V86.8498C446.816 87.8487 446.614 88.8404 446.2 89.7498L451 92.5098C451.748 93.006 452.369 93.6706 452.814 94.4504C453.259 95.2302 453.514 96.1034 453.56 96.9998C453.56 98.6498 452.4 99.3198 450.97 98.4998L419.71 80.4998C418.954 80.0072 418.325 79.3427 417.875 78.5606C417.425 77.7785 417.166 76.901 417.12 75.9998C417.12 74.3098 418.28 73.6398 419.71 74.4598Z" fill="#E6E6E6"/>
<path d="M397.37 226.23C393.17 233.33 389.13 239.5 386.29 242.46C380.9 244.96 368.24 248.82 363.29 249.46C362.42 249.571 361.54 249.365 360.81 248.88C358.86 247.6 357.35 247.39 355.3 246.68C353.69 246.13 353.01 245.36 352.71 245.68C352.4 246.044 352.244 246.514 352.276 246.99C352.308 247.466 352.525 247.912 352.88 248.23C353.649 248.961 354.502 249.599 355.42 250.13C353.224 250.675 350.934 250.716 348.72 250.25C344.43 249.12 342.41 251.18 345.31 255.84C346.31 257.5 350.43 260.17 358.71 259.45C361.664 259.291 364.606 258.957 367.52 258.45C375.46 256.75 384.29 255.11 389.72 253.45C391.74 252.656 393.547 251.403 395 249.79C404.13 239.38 407.16 231.96 411.16 225.22L410.82 214.22C404.34 214 400.88 220.29 397.37 226.23Z" fill="#F1A78D"/>
<path d="M411.93 214C410.051 213.736 408.136 213.99 406.391 214.736C404.646 215.481 403.138 216.689 402.03 218.23C397.59 223.92 389.73 237.58 389.73 237.58C389.73 237.58 392.3 244.43 399.24 245.58L410.39 230.52C410.39 230.52 415.67 220.06 411.93 214Z" fill="#455A64"/>
<path d="M436.04 367.541H428.77V380.501H436.04V367.541Z" fill="#F1A78D"/>
<path d="M410.84 366.851L403.58 367.111L403.21 353.391L410.84 353.131V366.851Z" fill="#F1A78D"/>
<path d="M437.06 255.351C437.06 262.571 436 320.741 436 320.741C436.16 322.821 438 326.661 437.63 334.651C437.08 345.501 436.35 374.021 436.35 374.021C435.102 374.66 433.725 375.006 432.323 375.034C430.922 375.061 429.532 374.77 428.26 374.181C428.26 374.181 422.36 334.181 421.06 323.471C419.92 314.081 417 283.001 417 283.001L413.07 319.741C413.903 323.683 414.206 327.719 413.97 331.741C413.63 336.741 411.29 362.621 411.29 362.621C410.034 363.362 408.626 363.807 407.172 363.923C405.719 364.039 404.258 363.823 402.9 363.291C402.9 363.291 398.76 324.291 398.68 319.711C398.58 314.511 401.1 255.291 401.1 255.291L437.06 255.351Z" fill="#37474F"/>
<path d="M428.77 376.761V375.681C428.07 375.991 426.46 382.411 423.57 385.151C421.28 387.331 418.16 389.841 417.36 392.271C416.56 394.701 421.71 396.191 423.86 395.801C426.34 395.341 430.66 393.511 431.74 391.801C432.82 390.091 433.33 387.611 434.21 386.371C435.09 385.131 437.12 383.751 437.59 382.311C437.737 380.964 437.597 379.601 437.18 378.311C436.84 376.971 436.48 375.501 436.04 375.631V376.451C435.015 377.292 433.726 377.746 432.4 377.731C431.34 377.821 428.76 377.601 428.77 376.761Z" fill="#263238"/>
<path d="M403.5 364.771C403.12 364.771 402.81 365.341 401.98 366.281C400.746 367.579 399.302 368.661 397.71 369.481C394.99 370.901 389.71 373.081 387.3 374.211C385.8 374.911 385.87 376.791 387.42 377.861C388.97 378.931 392.7 379.701 397.18 378.661C399.62 378.091 402.8 375.741 404.82 375.871C406.84 376.001 410.59 375.961 412.08 374.871C413.57 373.781 412.97 371.521 412.55 369.571C412.09 367.431 411.55 364.101 410.84 364.251V365.001C409.97 366.381 405.46 366.941 403.54 365.931L403.5 364.771Z" fill="#263238"/>
<path d="M417 283.001C413.218 281.763 409.761 279.696 406.88 276.951C406.88 276.951 408.88 280.761 414.64 284.311L413.4 317.121L417 283.001Z" fill="#263238"/>
<path d="M433 215.06C433 215.06 439 216.44 438.57 227.28L437.32 244.53V270.43C431.98 276.49 408.32 276.05 400.17 269.95C400.17 269.95 401.09 239.3 401.64 227.5C402.03 219.12 403.96 214.9 412.2 213.98L422.33 214.42L433 215.06Z" fill="#F5AB13"/>
<path d="M425.36 192.541C425.395 193.993 425.141 195.436 424.615 196.789C424.089 198.142 423.301 199.378 422.295 200.425C421.289 201.471 420.086 202.309 418.755 202.888C417.424 203.468 415.992 203.778 414.54 203.801C408.54 203.801 405.02 198.621 403.72 192.541C401.32 181.411 408.56 181.271 414.54 181.271C417.469 181.332 420.254 182.553 422.283 184.666C424.312 186.78 425.419 189.612 425.36 192.541Z" fill="#263238"/>
<path d="M430.88 197.09C430.88 197.09 429.22 205.21 428.55 206.55C428.129 207.356 427.412 207.969 426.55 208.26L426.67 202.55L430.88 197.09Z" fill="#263238"/>
<path d="M428.79 185.462C428.79 185.462 429.98 185.162 431.25 187.142C432.33 188.832 432.58 192.632 430.88 197.142L427.75 197.522L428.79 185.462Z" fill="#263238"/>
<path d="M429.94 187.11L433.78 187.18C433.806 186.932 433.781 186.681 433.706 186.443C433.63 186.205 433.507 185.985 433.342 185.797C433.178 185.609 432.976 185.457 432.751 185.351C432.525 185.245 432.279 185.187 432.03 185.18C431.505 185.187 431.001 185.388 430.616 185.745C430.23 186.101 429.989 186.587 429.94 187.11Z" fill="#263238"/>
<path d="M430.41 186.201L433.25 183.471C433.086 183.278 432.885 183.121 432.657 183.01C432.43 182.899 432.182 182.836 431.929 182.826C431.676 182.815 431.424 182.858 431.189 182.95C430.953 183.042 430.739 183.182 430.56 183.361C430.183 183.729 429.959 184.225 429.931 184.751C429.903 185.277 430.074 185.795 430.41 186.201Z" fill="#263238"/>
<path d="M426.81 197.47C427.44 197.86 428.33 196.61 429.11 195.76C429.89 194.91 432.31 194.13 433.57 196.89C434.83 199.65 432.68 202.38 430.88 203.28C427.65 204.88 426.63 202.55 426.63 202.55L426.36 215.41C421.82 222.41 411.52 222.19 415.23 215.07V211.16C413.704 211.414 412.154 211.494 410.61 211.4C408.09 211 406.51 208.93 405.74 206.09C404.52 201.53 404.05 197.85 405.09 188.88C406.23 179.06 417.21 178.95 423.09 182.88C428.97 186.81 426.81 197.47 426.81 197.47Z" fill="#F1A78D"/>
<path d="M413.13 187.351C415.75 187.091 418.34 186.551 420.97 186.351C421.537 186.282 422.112 186.309 422.67 186.431C424.67 186.981 424.43 189.321 424.75 190.951C425.3 193.771 425.75 198.541 426.81 198.561C427.13 198.561 428.33 196.491 429.11 195.751C429.539 195.113 429.781 194.368 429.81 193.601C430.01 192.441 430.11 191.251 430.2 190.071C430.28 189.071 430.38 188.071 430.38 187.071C430.426 185.941 430.335 184.809 430.11 183.701C429.859 182.758 429.378 181.892 428.71 181.181L428.51 180.961C427.192 179.583 425.592 178.505 423.82 177.801C421.27 176.845 418.596 176.263 415.88 176.071C413.168 175.879 410.467 175.545 407.79 175.071C407.637 175.026 407.474 175.026 407.32 175.071C407.212 175.131 407.12 175.217 407.053 175.322C406.987 175.427 406.948 175.547 406.94 175.671C406.83 176.292 406.899 176.932 407.138 177.516C407.377 178.1 407.776 178.604 408.29 178.971C406.48 179.111 404.4 178.171 402.66 177.691C402.519 177.631 402.368 177.6 402.215 177.6C402.062 177.6 401.911 177.631 401.77 177.691C401.596 177.813 401.471 177.994 401.42 178.201C401.293 178.67 401.276 179.163 401.37 179.641C401.529 181.088 402.067 182.468 402.93 183.641C404.278 185.395 406.182 186.64 408.33 187.171C409.911 187.476 411.53 187.536 413.13 187.351Z" fill="#263238"/>
<path d="M415.24 211.16C415.24 211.16 420.86 209.98 422.82 208.89C423.988 208.251 424.935 207.275 425.54 206.09C425.245 207.281 424.718 208.402 423.99 209.39C422.56 211.31 415.24 212.71 415.24 212.71V211.16Z" fill="#F28F8F"/>
<path d="M416.59 196.001C416.579 196.31 416.691 196.61 416.901 196.837C417.111 197.064 417.401 197.198 417.71 197.211C417.955 197.231 418.2 197.177 418.414 197.055C418.628 196.934 418.799 196.75 418.907 196.529C419.015 196.308 419.053 196.06 419.017 195.817C418.981 195.574 418.872 195.347 418.705 195.167C418.538 194.986 418.321 194.861 418.081 194.806C417.842 194.751 417.591 194.77 417.362 194.861C417.134 194.951 416.938 195.108 416.8 195.311C416.662 195.515 416.589 195.755 416.59 196.001Z" fill="#263238"/>
<path d="M418.39 191.15L420.8 192.54C420.975 192.197 421.015 191.801 420.911 191.43C420.807 191.06 420.568 190.742 420.24 190.54C420.08 190.45 419.903 190.395 419.721 190.377C419.539 190.36 419.355 190.38 419.181 190.437C419.006 190.495 418.846 190.588 418.71 190.711C418.574 190.833 418.465 190.983 418.39 191.15Z" fill="#263238"/>
<path d="M415.74 204.111L413.17 205.111C413.222 205.288 413.309 205.451 413.427 205.592C413.544 205.734 413.69 205.849 413.854 205.931C414.018 206.014 414.197 206.062 414.381 206.072C414.564 206.082 414.748 206.055 414.92 205.991C415.27 205.841 415.549 205.563 415.701 205.213C415.854 204.864 415.867 204.47 415.74 204.111Z" fill="#F28F8F"/>
<path d="M406.25 192.18L408.45 190.42C408.352 190.267 408.222 190.135 408.069 190.035C407.916 189.935 407.744 189.868 407.564 189.839C407.384 189.81 407.2 189.819 407.023 189.866C406.847 189.912 406.682 189.996 406.54 190.11C406.246 190.359 406.054 190.708 406.001 191.09C405.947 191.472 406.036 191.86 406.25 192.18Z" fill="#263238"/>
<path d="M407.22 195.671C407.237 195.89 407.318 196.099 407.452 196.273C407.587 196.446 407.769 196.577 407.976 196.649C408.184 196.721 408.407 196.731 408.62 196.677C408.833 196.624 409.026 196.51 409.175 196.349C409.324 196.188 409.423 195.987 409.46 195.771C409.497 195.554 409.47 195.332 409.382 195.13C409.295 194.929 409.151 194.758 408.967 194.637C408.784 194.516 408.569 194.452 408.35 194.451C408.195 194.456 408.043 194.492 407.903 194.556C407.762 194.621 407.635 194.712 407.53 194.825C407.425 194.939 407.344 195.072 407.29 195.217C407.237 195.362 407.213 195.517 407.22 195.671Z" fill="#263238"/>
<path d="M413.25 194.73L413.12 201.84L409.08 200.92L413.25 194.73Z" fill="#F28F8F"/>
<path d="M317.31 254.28L323.58 250.66L326.06 247.65L319.8 251.27L317.31 254.28Z" fill="#F5AB13"/>
<path opacity="0.4" d="M317.31 254.28L323.58 250.66L326.06 247.65L319.8 251.27L317.31 254.28Z" fill="black"/>
<path d="M334.36 264.121L340.63 260.501L345.86 255.871L339.6 259.481L334.36 264.121Z" fill="#F5AB13"/>
<path opacity="0.4" d="M334.36 264.121L340.63 260.501L345.86 255.871L339.6 259.481L334.36 264.121Z" fill="black"/>
<path d="M387.62 276.61C389.103 278.597 390 280.96 390.21 283.43C388.734 281.439 387.838 279.079 387.62 276.61ZM402.19 276.8C400.08 262.45 392.37 248.26 383.19 242.95C378.78 240.4 374.7 240.31 371.43 242.22L365.53 245.62L365.2 245.82C364.937 245.965 364.683 246.125 364.44 246.3C363.955 246.634 363.5 247.008 363.08 247.42L362.88 247.61C362.7 247.79 362.51 248 362.34 248.2C362.17 248.4 361.91 248.71 361.71 248.98C361.286 249.539 360.901 250.127 360.56 250.74C360.38 251.05 360.21 251.38 360.05 251.74L308.52 222L302.26 225.61V229.61L302.79 229.91L303.29 230.2V231L302.29 231.59V233.91L309.86 249.91L317.34 254.24L319.83 251.24L326.43 255.19L330.22 261.68L334.4 264.09L339.63 259.45L346.05 263.16L348.21 272.07L359 278.31C359.533 280.578 360.201 282.812 361 285C361.07 285.22 361.16 285.45 361.25 285.7C364.83 295.1 370.52 303.15 376.94 306.86C377.709 307.316 378.516 307.708 379.35 308.03C379.791 308.205 380.242 308.356 380.7 308.48C381.1 308.587 381.5 308.677 381.9 308.75C383.163 308.98 384.457 308.98 385.72 308.75L386.24 308.62C386.489 308.57 386.733 308.5 386.97 308.41L387.53 308.19C387.728 308.118 387.919 308.028 388.1 307.92C388.285 307.84 388.465 307.75 388.64 307.65L388.9 307.49C388.947 307.475 388.991 307.451 389.03 307.42C390.46 306.6 393.98 304.56 394.94 304.02C399.7 301.26 402.78 294.28 402.78 284.41C402.772 281.862 402.575 279.319 402.19 276.8Z" fill="#F5AB13"/>
<path d="M385.79 288.721C383.31 287.291 381.31 283.051 381.31 279.251C381.31 275.451 383.31 273.521 385.79 274.941C388.27 276.361 390.26 280.611 390.26 284.421C390.26 288.231 388.26 290.151 385.79 288.721ZM395.92 280.411C393.82 266.071 386.11 251.871 376.92 246.571C372.66 244.111 368.72 243.931 365.52 245.621L365.19 245.821C364.927 245.966 364.673 246.126 364.43 246.301C363.945 246.635 363.49 247.01 363.07 247.421L362.87 247.611C362.69 247.791 362.5 248.001 362.33 248.201C362.16 248.401 361.9 248.711 361.7 248.981C361.276 249.54 360.891 250.128 360.55 250.741C360.37 251.051 360.2 251.381 360.04 251.741C359.108 253.674 358.435 255.722 358.04 257.831L302.25 225.611V229.611L302.78 229.911L303.28 230.201V231.001L302.28 231.591V233.911L309.85 249.911L317.33 254.241L319.82 251.241L326.42 255.191L330.21 261.681L334.39 264.091L339.62 259.451L346.04 263.161L348.2 272.071L359 278.311C359.533 280.579 360.201 282.813 361 285.001C361.07 285.221 361.16 285.451 361.25 285.701C364.83 295.101 370.52 303.151 376.94 306.861C377.709 307.318 378.516 307.709 379.35 308.031C379.791 308.207 380.242 308.357 380.7 308.481C381.1 308.588 381.5 308.678 381.9 308.751C383.163 308.982 384.457 308.982 385.72 308.751L386.24 308.621C386.489 308.571 386.733 308.501 386.97 308.411L387.53 308.191C387.728 308.12 387.919 308.029 388.1 307.921C388.285 307.841 388.465 307.751 388.64 307.651L388.9 307.491C388.947 307.476 388.991 307.452 389.03 307.421C393.59 304.541 396.52 297.661 396.52 288.031C396.503 285.48 396.303 282.934 395.92 280.411Z" fill="#F5AB13"/>
<path opacity="0.4" d="M390.26 284.411C390.26 288.221 388.26 290.151 385.79 288.721C383.32 287.291 381.31 283.061 381.31 279.251C381.31 275.441 383.31 273.511 385.79 274.941C386.504 275.375 387.126 275.946 387.62 276.621C387.835 279.09 388.732 281.451 390.21 283.441C390.247 283.763 390.263 284.087 390.26 284.411Z" fill="black"/>
<path opacity="0.4" d="M402.76 284.4C402.76 294.27 399.68 301.25 394.92 304.01C393.92 304.55 390.44 306.59 389.01 307.41C393.57 304.53 396.5 297.65 396.5 288.02C396.489 285.473 396.296 282.93 395.92 280.41C393.82 266.07 386.11 251.87 376.92 246.57C372.66 244.11 368.72 243.93 365.52 245.62L371.42 242.22C374.69 240.31 378.77 240.4 383.18 242.95C392.37 248.26 400.08 262.45 402.18 276.8C402.561 279.316 402.755 281.856 402.76 284.4Z" fill="white"/>
<path d="M396.5 288.001C396.5 297.631 393.57 304.511 389.01 307.391C390.44 306.571 393.96 304.531 394.92 303.991C399.68 301.231 402.76 294.251 402.76 284.381C402.76 284.021 402.76 283.651 402.76 283.281L396.5 286.901C396.49 287.291 396.5 287.651 396.5 288.001Z" fill="#F5AB13"/>
<path opacity="0.1" d="M396.5 288.001C396.5 297.631 393.57 304.511 389.01 307.391C390.44 306.571 393.96 304.531 394.92 303.991C399.68 301.231 402.76 294.251 402.76 284.381C402.76 284.021 402.76 283.651 402.76 283.281L396.5 286.901C396.49 287.291 396.5 287.651 396.5 288.001Z" fill="black"/>
<path opacity="0.15" d="M358.28 261.92V263.95L302.26 231.61L303.29 231.01V230.17L358.28 261.92Z" fill="black"/>
<path opacity="0.15" d="M358.28 262.76V263.95L302.26 231.61L303.29 231.01V231L358.28 262.76Z" fill="black"/>
<path opacity="0.15" d="M382.64 304.001C380.517 303.946 378.446 303.328 376.64 302.211C367.51 296.941 360.08 281.261 360.08 267.261C360.08 259.091 362.55 252.991 366.86 250.501C369.86 248.761 373.41 248.981 377.14 251.131C386.26 256.401 393.69 272.131 393.69 286.131C393.69 294.291 391.22 300.401 386.91 302.881C385.61 303.623 384.137 304.01 382.64 304.001ZM371.19 250.351C369.857 250.344 368.546 250.689 367.39 251.351C363.46 253.621 361.11 259.571 361.11 267.251C361.11 280.931 368.31 296.251 377.17 301.331C380.56 303.331 383.77 303.511 386.44 301.971C390.37 299.701 392.72 293.761 392.72 286.081C392.72 272.391 385.52 257.081 376.67 251.991C375.016 250.985 373.126 250.433 371.19 250.391V250.351Z" fill="black"/>
<path opacity="0.4" d="M360 251.72C359.068 253.653 358.395 255.701 358 257.81L302.21 225.59L308.47 221.98L360 251.72Z" fill="white"/>
<path d="M432.51 254.85C435.43 249.32 438.77 236.9 440.43 230.63C442.79 221.73 438.97 216.13 434.63 215.9C431.92 216.32 422.99 248.79 422.99 248.79C421.99 249.58 408.42 256.47 404.06 258.2C403.28 258.495 402.42 258.495 401.64 258.2C399.55 257.44 398.12 257.58 396.07 257.38C394.46 257.22 393.65 256.65 393.44 256.99C393.249 257.412 393.225 257.891 393.371 258.33C393.518 258.769 393.824 259.137 394.23 259.36C395.113 259.875 396.052 260.284 397.03 260.58C395.277 261.112 393.451 261.359 391.62 261.31C387.42 261.22 385.91 263.04 389.17 267.31C391.17 269.97 394.48 270.81 401.87 268.26C403.99 267.52 406.87 266.09 409.56 265.12C415.1 263.12 416.56 262.88 420.78 261.45C426.93 259.37 431.21 257.31 432.51 254.85Z" fill="#F1A78D"/>
<path d="M433 215.061C435.55 215.411 438 215.981 439.51 218.061C441.02 220.141 442.23 223.061 440.75 231.011C439.617 236.602 438.1 242.108 436.21 247.491C436.21 247.491 430.27 250.031 423.96 243.591L428.3 226.811C428.3 226.811 429 215.901 433 215.061Z" fill="#455A64"/>
</svg>
