<svg width="32" height="33" viewBox="0 0 32 33" fill="none" xmlns="http://www.w3.org/2000/svg">
<path fill-rule="evenodd" clip-rule="evenodd" d="M31.3823 28.6678C30.47 26.555 26.0201 25.1624 23.0749 23.8498C20.1137 22.5373 20.5299 21.753 20.4178 20.6645C20.4018 20.5205 20.4018 20.3604 20.3858 20.2003C21.3942 19.304 22.2266 18.0715 22.7708 16.6469C22.7708 16.6469 22.8028 16.5668 22.8028 16.5508C22.9149 16.2467 23.0109 15.9266 23.1069 15.5904C23.7792 15.4464 24.1794 14.7101 24.3234 14.0218C24.4835 13.7497 24.7876 13.0614 24.7236 12.2931C24.6276 11.3007 24.2274 10.8365 23.7792 10.6444C23.7792 10.5804 23.7792 10.5323 23.7792 10.4683C23.7792 9.2038 23.6672 7.37905 23.4271 6.17855C23.379 5.84241 23.299 5.50627 23.203 5.18614C22.7708 3.71353 21.8584 2.40099 20.6419 1.47261C19.3774 0.512211 17.6007 0 16.016 0C14.4314 0 12.6546 0.512211 11.3901 1.47261C10.1736 2.40099 9.26122 3.71353 8.82904 5.18614C8.733 5.50627 8.65297 5.84241 8.60495 6.17855C8.38086 7.37905 8.2528 9.2038 8.2528 10.4683V10.6284C7.78861 10.8045 7.37244 11.2687 7.2764 12.2931C7.21237 13.0614 7.5165 13.7497 7.67657 14.0218C7.83663 14.7261 8.2368 15.4784 8.94109 15.5904C9.02112 15.9266 9.13317 16.2467 9.24521 16.5508C9.24521 16.5668 9.26122 16.5989 9.26122 16.6149L9.27723 16.6469C9.82145 18.1035 10.6698 19.352 11.7102 20.2484C11.7102 20.3924 11.6942 20.5365 11.6782 20.6645C11.5662 21.753 11.8863 22.5373 8.92508 23.8498C5.96386 25.1624 1.53003 26.555 0.617654 28.6678C-0.294723 30.7807 0.0734291 32.0132 0.0734291 32.0132H31.9266C31.9266 32.0132 32.2947 30.7807 31.3823 28.6678Z" fill="white"/>
</svg>
